<mxfile host="65bd71144e">
    <diagram id="dIHc9NuBZYFJsO0LJrJv" name="Page-1">
        <mxGraphModel dx="619" dy="924" grid="1" gridSize="10" guides="1" tooltips="1" connect="1" arrows="1" fold="1" page="1" pageScale="1" pageWidth="850" pageHeight="1100" math="0" shadow="0">
            <root>
                <mxCell id="0"/>
                <mxCell id="1" parent="0"/>
                <mxCell id="8" value="" style="endArrow=none;html=1;" parent="1" edge="1">
                    <mxGeometry width="50" height="50" relative="1" as="geometry">
                        <mxPoint x="434.5" y="399" as="sourcePoint"/>
                        <mxPoint x="435" y="289" as="targetPoint"/>
                    </mxGeometry>
                </mxCell>
                <mxCell id="10" value="" style="endArrow=none;html=1;" parent="1" edge="1">
                    <mxGeometry width="50" height="50" relative="1" as="geometry">
                        <mxPoint x="664.5" y="399" as="sourcePoint"/>
                        <mxPoint x="665" y="289" as="targetPoint"/>
                    </mxGeometry>
                </mxCell>
                <mxCell id="7" value="" style="endArrow=none;html=1;" parent="1" edge="1">
                    <mxGeometry width="50" height="50" relative="1" as="geometry">
                        <mxPoint x="204.5" y="400" as="sourcePoint"/>
                        <mxPoint x="205" y="290" as="targetPoint"/>
                    </mxGeometry>
                </mxCell>
                <mxCell id="2" value="" style="rounded=1;whiteSpace=wrap;html=1;" parent="1" vertex="1">
                    <mxGeometry x="604" y="379" width="120" height="20" as="geometry"/>
                </mxCell>
                <mxCell id="3" value="" style="endArrow=none;html=1;endSize=9;startSize=9;" parent="1" edge="1">
                    <mxGeometry width="50" height="50" relative="1" as="geometry">
                        <mxPoint x="130" y="400" as="sourcePoint"/>
                        <mxPoint x="280" y="400" as="targetPoint"/>
                    </mxGeometry>
                </mxCell>
                <mxCell id="5" value="" style="rounded=1;whiteSpace=wrap;html=1;fillColor=#3333FF;" parent="1" vertex="1">
                    <mxGeometry x="614" y="359" width="100" height="20" as="geometry"/>
                </mxCell>
                <mxCell id="6" value="" style="rounded=1;whiteSpace=wrap;html=1;fillColor=#3333FF;" parent="1" vertex="1">
                    <mxGeometry x="634" y="339" width="60" height="20" as="geometry"/>
                </mxCell>
                <mxCell id="9" value="" style="endArrow=none;html=1;endSize=9;startSize=9;" parent="1" edge="1">
                    <mxGeometry width="50" height="50" relative="1" as="geometry">
                        <mxPoint x="360" y="399" as="sourcePoint"/>
                        <mxPoint x="510" y="399" as="targetPoint"/>
                    </mxGeometry>
                </mxCell>
                <mxCell id="11" value="" style="endArrow=none;html=1;endSize=9;startSize=9;" parent="1" edge="1">
                    <mxGeometry width="50" height="50" relative="1" as="geometry">
                        <mxPoint x="590" y="399" as="sourcePoint"/>
                        <mxPoint x="740" y="399" as="targetPoint"/>
                    </mxGeometry>
                </mxCell>
                <mxCell id="12" value="From" style="text;html=1;strokeColor=none;fillColor=none;align=center;verticalAlign=middle;whiteSpace=wrap;rounded=0;" parent="1" vertex="1">
                    <mxGeometry x="175" y="260" width="60" height="30" as="geometry"/>
                </mxCell>
                <mxCell id="13" value="Other" style="text;html=1;strokeColor=none;fillColor=none;align=center;verticalAlign=middle;whiteSpace=wrap;rounded=0;" parent="1" vertex="1">
                    <mxGeometry x="410" y="260" width="60" height="30" as="geometry"/>
                </mxCell>
                <mxCell id="14" value="To" style="text;html=1;strokeColor=none;fillColor=none;align=center;verticalAlign=middle;whiteSpace=wrap;rounded=0;" parent="1" vertex="1">
                    <mxGeometry x="630" y="260" width="60" height="30" as="geometry"/>
                </mxCell>
                <mxCell id="17" value="N th plate" style="text;html=1;strokeColor=none;fillColor=none;align=center;verticalAlign=middle;whiteSpace=wrap;rounded=0;" parent="1" vertex="1">
                    <mxGeometry x="530" y="369" width="60" height="30" as="geometry"/>
                </mxCell>
                <mxCell id="18" value="1st to (N-1)th plate" style="text;html=1;strokeColor=none;fillColor=none;align=center;verticalAlign=middle;whiteSpace=wrap;rounded=0;" parent="1" vertex="1">
                    <mxGeometry x="489" y="339" width="115" height="30" as="geometry"/>
                </mxCell>
                <mxCell id="19" value="Step 3" style="text;html=1;strokeColor=none;fillColor=none;align=center;verticalAlign=middle;whiteSpace=wrap;rounded=0;" parent="1" vertex="1">
                    <mxGeometry x="410" y="420" width="60" height="30" as="geometry"/>
                </mxCell>
            </root>
        </mxGraphModel>
    </diagram>
</mxfile>